<mxfile host="app.diagrams.net" modified="2022-09-16T06:28:35.273Z" agent="5.0 (Windows NT 10.0; Win64; x64) AppleWebKit/537.36 (KHTML, like Gecko) Chrome/105.0.0.0 Safari/537.36 Edg/105.0.1343.33" etag="phLUn-JZFmxKqupxHnph" version="20.3.1" type="github">
  <diagram id="prtHgNgQTEPvFCAcTncT" name="Page-1">
    <mxGraphModel dx="1564" dy="936" grid="1" gridSize="10" guides="1" tooltips="1" connect="1" arrows="1" fold="1" page="1" pageScale="1" pageWidth="827" pageHeight="1169" math="0" shadow="0">
      <root>
        <mxCell id="0" />
        <mxCell id="1" parent="0" />
        <mxCell id="cpttU_InVNBxRJqcF3ay-3" value="项目入口" style="whiteSpace=wrap;html=1;rounded=1;arcSize=50;align=center;verticalAlign=middle;strokeWidth=1;autosize=1;spacing=4;treeFolding=1;treeMoving=1;newEdgeStyle={&quot;edgeStyle&quot;:&quot;entityRelationEdgeStyle&quot;,&quot;startArrow&quot;:&quot;none&quot;,&quot;endArrow&quot;:&quot;none&quot;,&quot;segment&quot;:10,&quot;curved&quot;:1};" vertex="1" parent="1">
          <mxGeometry x="521" y="230" width="90" height="30" as="geometry" />
        </mxCell>
        <mxCell id="cpttU_InVNBxRJqcF3ay-4" value="" style="edgeStyle=entityRelationEdgeStyle;startArrow=none;endArrow=none;segment=10;curved=1;rounded=0;" edge="1" target="cpttU_InVNBxRJqcF3ay-3" parent="1">
          <mxGeometry relative="1" as="geometry">
            <mxPoint x="490" y="260" as="sourcePoint" />
          </mxGeometry>
        </mxCell>
        <mxCell id="cpttU_InVNBxRJqcF3ay-18" value="GameLunach" style="swimlane;fontStyle=0;childLayout=stackLayout;horizontal=1;startSize=26;fillColor=#ffe6cc;horizontalStack=0;resizeParent=1;resizeParentMax=0;resizeLast=0;collapsible=1;marginBottom=0;strokeColor=#d79b00;" vertex="1" parent="1">
          <mxGeometry x="350" y="248" width="140" height="104" as="geometry" />
        </mxCell>
        <mxCell id="cpttU_InVNBxRJqcF3ay-19" value="Init():void" style="text;strokeColor=none;fillColor=none;align=left;verticalAlign=top;spacingLeft=4;spacingRight=4;overflow=hidden;rotatable=0;points=[[0,0.5],[1,0.5]];portConstraint=eastwest;" vertex="1" parent="cpttU_InVNBxRJqcF3ay-18">
          <mxGeometry y="26" width="140" height="26" as="geometry" />
        </mxCell>
        <mxCell id="cpttU_InVNBxRJqcF3ay-20" value="LoadSaveData():void" style="text;strokeColor=none;fillColor=none;align=left;verticalAlign=top;spacingLeft=4;spacingRight=4;overflow=hidden;rotatable=0;points=[[0,0.5],[1,0.5]];portConstraint=eastwest;" vertex="1" parent="cpttU_InVNBxRJqcF3ay-18">
          <mxGeometry y="52" width="140" height="26" as="geometry" />
        </mxCell>
        <mxCell id="cpttU_InVNBxRJqcF3ay-21" value="LoadScene():void" style="text;strokeColor=none;fillColor=none;align=left;verticalAlign=top;spacingLeft=4;spacingRight=4;overflow=hidden;rotatable=0;points=[[0,0.5],[1,0.5]];portConstraint=eastwest;" vertex="1" parent="cpttU_InVNBxRJqcF3ay-18">
          <mxGeometry y="78" width="140" height="26" as="geometry" />
        </mxCell>
        <mxCell id="cpttU_InVNBxRJqcF3ay-24" style="edgeStyle=orthogonalEdgeStyle;rounded=0;orthogonalLoop=1;jettySize=auto;html=1;exitX=0.5;exitY=1;exitDx=0;exitDy=0;entryX=0.5;entryY=0;entryDx=0;entryDy=0;" edge="1" parent="1" source="cpttU_InVNBxRJqcF3ay-23" target="cpttU_InVNBxRJqcF3ay-18">
          <mxGeometry relative="1" as="geometry" />
        </mxCell>
        <mxCell id="cpttU_InVNBxRJqcF3ay-23" value="&lt;pre style=&quot;background-color:#1e1e1e;color:#dcdcdc;font-family:&#39;Consolas&#39;,monospace;font-size:9.0pt;&quot;&gt;SingletonMono&lt;/pre&gt;&lt;hr size=&quot;1&quot;&gt;&lt;p style=&quot;margin:0px;margin-left:4px;&quot;&gt;+ Instance:T&lt;/p&gt;" style="verticalAlign=top;align=left;overflow=fill;fontSize=12;fontFamily=Helvetica;html=1;fillColor=#ffe6cc;strokeColor=#d79b00;" vertex="1" parent="1">
          <mxGeometry x="350" y="128" width="140" height="90" as="geometry" />
        </mxCell>
        <mxCell id="cpttU_InVNBxRJqcF3ay-27" value="单利类" style="whiteSpace=wrap;html=1;rounded=1;arcSize=50;align=center;verticalAlign=middle;strokeWidth=1;autosize=1;spacing=4;treeFolding=1;treeMoving=1;newEdgeStyle={&quot;edgeStyle&quot;:&quot;entityRelationEdgeStyle&quot;,&quot;startArrow&quot;:&quot;none&quot;,&quot;endArrow&quot;:&quot;none&quot;,&quot;segment&quot;:10,&quot;curved&quot;:1};labelBackgroundColor=none;" vertex="1" parent="1">
          <mxGeometry x="560" y="100" width="80" height="30" as="geometry" />
        </mxCell>
        <mxCell id="cpttU_InVNBxRJqcF3ay-28" value="" style="edgeStyle=entityRelationEdgeStyle;startArrow=none;endArrow=none;segment=10;curved=1;rounded=0;" edge="1" target="cpttU_InVNBxRJqcF3ay-27" parent="1">
          <mxGeometry relative="1" as="geometry">
            <mxPoint x="499" y="150" as="sourcePoint" />
          </mxGeometry>
        </mxCell>
        <mxCell id="cpttU_InVNBxRJqcF3ay-30" style="edgeStyle=orthogonalEdgeStyle;rounded=0;orthogonalLoop=1;jettySize=auto;html=1;exitX=0.5;exitY=1;exitDx=0;exitDy=0;entryX=0.5;entryY=0;entryDx=0;entryDy=0;" edge="1" parent="1" source="cpttU_InVNBxRJqcF3ay-29" target="cpttU_InVNBxRJqcF3ay-23">
          <mxGeometry relative="1" as="geometry" />
        </mxCell>
        <mxCell id="cpttU_InVNBxRJqcF3ay-29" value="&lt;p style=&quot;margin:0px;margin-top:4px;text-align:center;&quot;&gt;&lt;br&gt;&lt;b&gt;Monobehaviour&lt;/b&gt;&lt;/p&gt;" style="verticalAlign=top;align=left;overflow=fill;fontSize=12;fontFamily=Helvetica;html=1;labelBackgroundColor=none;fillColor=#ffe6cc;strokeColor=#d79b00;" vertex="1" parent="1">
          <mxGeometry x="344" y="40" width="156" height="60" as="geometry" />
        </mxCell>
        <mxCell id="cpttU_InVNBxRJqcF3ay-31" value="&lt;pre style=&quot;background-color:#1e1e1e;color:#dcdcdc;font-family:&#39;Consolas&#39;,monospace;font-size:9.0pt;&quot;&gt;SceneLoadManager&lt;/pre&gt;&lt;hr size=&quot;1&quot;&gt;&lt;div style=&quot;height:2px;&quot;&gt;&lt;/div&gt;" style="verticalAlign=top;align=left;overflow=fill;fontSize=12;fontFamily=Helvetica;html=1;labelBackgroundColor=none;fillColor=#fff2cc;strokeColor=#d6b656;" vertex="1" parent="1">
          <mxGeometry x="130" y="283" width="140" height="60" as="geometry" />
        </mxCell>
        <mxCell id="cpttU_InVNBxRJqcF3ay-32" value="依赖" style="endArrow=open;dashed=1;endFill=0;endSize=12;html=1;rounded=0;exitX=-0.043;exitY=0.5;exitDx=0;exitDy=0;entryX=1;entryY=0.5;entryDx=0;entryDy=0;exitPerimeter=0;" edge="1" parent="1" source="cpttU_InVNBxRJqcF3ay-20" target="cpttU_InVNBxRJqcF3ay-31">
          <mxGeometry width="160" relative="1" as="geometry">
            <mxPoint x="150" y="360" as="sourcePoint" />
            <mxPoint x="310" y="360" as="targetPoint" />
          </mxGeometry>
        </mxCell>
        <mxCell id="cpttU_InVNBxRJqcF3ay-33" value="&lt;pre style=&quot;background-color:#1e1e1e;color:#dcdcdc;font-family:&#39;Consolas&#39;,monospace;font-size:9.0pt;&quot;&gt;InputManager&lt;/pre&gt;&lt;hr size=&quot;1&quot;&gt;&lt;div style=&quot;height:2px;&quot;&gt;&lt;/div&gt;" style="verticalAlign=top;align=left;overflow=fill;fontSize=12;fontFamily=Helvetica;html=1;labelBackgroundColor=none;fillColor=#fff2cc;strokeColor=#d6b656;" vertex="1" parent="1">
          <mxGeometry x="130" y="352" width="140" height="60" as="geometry" />
        </mxCell>
        <mxCell id="cpttU_InVNBxRJqcF3ay-34" value="关联" style="endArrow=open;endFill=0;html=1;rounded=0;exitX=0.419;exitY=1.038;exitDx=0;exitDy=0;entryX=1;entryY=0.5;entryDx=0;entryDy=0;exitPerimeter=0;" edge="1" parent="1" source="cpttU_InVNBxRJqcF3ay-21" target="cpttU_InVNBxRJqcF3ay-33">
          <mxGeometry width="160" relative="1" as="geometry">
            <mxPoint x="450" y="360" as="sourcePoint" />
            <mxPoint x="414" y="350" as="targetPoint" />
            <Array as="points">
              <mxPoint x="410" y="380" />
            </Array>
          </mxGeometry>
        </mxCell>
        <mxCell id="cpttU_InVNBxRJqcF3ay-35" value="&lt;pre style=&quot;background-color:#1e1e1e;color:#dcdcdc;font-family:&#39;Consolas&#39;,monospace;font-size:9.0pt;&quot;&gt;WebResquestManager&lt;/pre&gt;&lt;hr size=&quot;1&quot;&gt;&lt;div style=&quot;height:2px;&quot;&gt;&lt;/div&gt;" style="verticalAlign=top;align=left;overflow=fill;fontSize=12;fontFamily=Helvetica;html=1;labelBackgroundColor=none;fillColor=#fff2cc;strokeColor=#d6b656;" vertex="1" parent="1">
          <mxGeometry x="610" y="283" width="140" height="60" as="geometry" />
        </mxCell>
        <mxCell id="cpttU_InVNBxRJqcF3ay-36" value="依赖" style="edgeStyle=orthogonalEdgeStyle;rounded=0;orthogonalLoop=1;jettySize=auto;html=1;exitX=1;exitY=0.5;exitDx=0;exitDy=0;entryX=0;entryY=0.5;entryDx=0;entryDy=0;endArrow=open;endFill=0;dashed=1;" edge="1" parent="1" source="cpttU_InVNBxRJqcF3ay-20" target="cpttU_InVNBxRJqcF3ay-35">
          <mxGeometry relative="1" as="geometry" />
        </mxCell>
        <mxCell id="cpttU_InVNBxRJqcF3ay-37" value="&lt;pre style=&quot;background-color:#1e1e1e;color:#dcdcdc;font-family:&#39;Consolas&#39;,monospace;font-size:9.0pt;&quot;&gt;EventManager&lt;/pre&gt;&lt;hr size=&quot;1&quot;&gt;&lt;div style=&quot;height:2px;&quot;&gt;&lt;/div&gt;" style="verticalAlign=top;align=left;overflow=fill;fontSize=12;fontFamily=Helvetica;html=1;labelBackgroundColor=none;fillColor=#fff2cc;strokeColor=#d6b656;" vertex="1" parent="1">
          <mxGeometry x="610" y="352" width="140" height="60" as="geometry" />
        </mxCell>
        <mxCell id="cpttU_InVNBxRJqcF3ay-38" value="关联" style="edgeStyle=orthogonalEdgeStyle;rounded=0;orthogonalLoop=1;jettySize=auto;html=1;entryX=0;entryY=0.5;entryDx=0;entryDy=0;endArrow=open;endFill=0;" edge="1" parent="1" target="cpttU_InVNBxRJqcF3ay-37">
          <mxGeometry relative="1" as="geometry">
            <mxPoint x="490" y="339" as="sourcePoint" />
          </mxGeometry>
        </mxCell>
        <mxCell id="cpttU_InVNBxRJqcF3ay-40" value="Classname" style="swimlane;fontStyle=0;childLayout=stackLayout;horizontal=1;startSize=26;fillColor=none;horizontalStack=0;resizeParent=1;resizeParentMax=0;resizeLast=0;collapsible=1;marginBottom=0;labelBackgroundColor=none;" vertex="1" parent="1">
          <mxGeometry x="344" y="620" width="140" height="104" as="geometry" />
        </mxCell>
        <mxCell id="cpttU_InVNBxRJqcF3ay-42" value="+ field: type" style="text;strokeColor=none;fillColor=none;align=left;verticalAlign=top;spacingLeft=4;spacingRight=4;overflow=hidden;rotatable=0;points=[[0,0.5],[1,0.5]];portConstraint=eastwest;labelBackgroundColor=none;" vertex="1" parent="cpttU_InVNBxRJqcF3ay-40">
          <mxGeometry y="26" width="140" height="26" as="geometry" />
        </mxCell>
        <mxCell id="cpttU_InVNBxRJqcF3ay-41" value="+ field: type" style="text;strokeColor=none;fillColor=none;align=left;verticalAlign=top;spacingLeft=4;spacingRight=4;overflow=hidden;rotatable=0;points=[[0,0.5],[1,0.5]];portConstraint=eastwest;labelBackgroundColor=none;" vertex="1" parent="cpttU_InVNBxRJqcF3ay-40">
          <mxGeometry y="52" width="140" height="26" as="geometry" />
        </mxCell>
        <mxCell id="cpttU_InVNBxRJqcF3ay-43" value="+ field: type" style="text;strokeColor=none;fillColor=none;align=left;verticalAlign=top;spacingLeft=4;spacingRight=4;overflow=hidden;rotatable=0;points=[[0,0.5],[1,0.5]];portConstraint=eastwest;labelBackgroundColor=none;" vertex="1" parent="cpttU_InVNBxRJqcF3ay-40">
          <mxGeometry y="78" width="140" height="26" as="geometry" />
        </mxCell>
        <mxCell id="cpttU_InVNBxRJqcF3ay-44" value="&lt;pre style=&quot;background-color:#1e1e1e;color:#dcdcdc;font-family:&#39;Consolas&#39;,monospace;font-size:9.0pt;&quot;&gt;BestHttpManager&lt;/pre&gt;&lt;hr size=&quot;1&quot;&gt;&lt;div style=&quot;height:2px;&quot;&gt;&lt;/div&gt;" style="verticalAlign=top;align=left;overflow=fill;fontSize=12;fontFamily=Helvetica;html=1;labelBackgroundColor=none;fillColor=#fff2cc;strokeColor=#d6b656;" vertex="1" parent="1">
          <mxGeometry x="611" y="430" width="140" height="60" as="geometry" />
        </mxCell>
        <mxCell id="cpttU_InVNBxRJqcF3ay-45" style="edgeStyle=orthogonalEdgeStyle;rounded=0;orthogonalLoop=1;jettySize=auto;html=1;exitX=1;exitY=0.5;exitDx=0;exitDy=0;entryX=0;entryY=0.5;entryDx=0;entryDy=0;endArrow=open;endFill=0;" edge="1" parent="1" source="cpttU_InVNBxRJqcF3ay-21" target="cpttU_InVNBxRJqcF3ay-44">
          <mxGeometry relative="1" as="geometry" />
        </mxCell>
      </root>
    </mxGraphModel>
  </diagram>
</mxfile>
